<?xml version="1.0" standalone="no"?>
<!DOCTYPE svg PUBLIC "-//W3C//DTD SVG 20010904//EN"
 "http://www.w3.org/TR/2001/REC-SVG-20010904/DTD/svg10.dtd">
<svg version="1.0" xmlns="http://www.w3.org/2000/svg"
 width="826.000000pt" height="533.000000pt" viewBox="0 0 826.000000 533.000000"
 preserveAspectRatio="xMidYMid meet">

<g transform="translate(0.000000,533.000000) scale(0.100000,-0.100000)"
fill="#BD6D30" stroke="none">
<path d="M455 5301 c-157 -45 -310 -171 -378 -311 -72 -148 -67 37 -67 -2325
0 -2351 -4 -2188 64 -2323 83 -161 232 -280 406 -323 82 -21 7218 -21 7300 0
218 53 400 236 455 457 13 53 15 312 13 2215 l-3 2154 -26 66 c-39 102 -76
158 -153 234 -79 79 -173 133 -272 159 -56 14 -408 16 -3670 15 -3388 0 -3613
-1 -3669 -18z m559 -401 c70 -33 113 -77 148 -148 l33 -67 0 -870 c0 -868 0
-870 -21 -916 -30 -64 -88 -125 -148 -157 -44 -23 -63 -27 -136 -27 -73 0 -92
4 -136 27 -28 15 -70 48 -92 73 -76 86 -72 36 -72 1001 0 841 1 865 20 917 33
87 120 163 215 188 46 12 144 1 189 -21z m3220 -46 c64 -22 147 -100 177 -166
30 -71 32 -174 2 -239 -30 -66 -86 -124 -151 -156 -76 -37 -182 -39 -257 -5
-112 51 -179 155 -179 277 -1 106 45 191 138 258 67 48 181 61 270 31z m21
-979 c71 -31 120 -77 151 -143 75 -156 -2 -352 -162 -412 -154 -57 -324 10
-394 155 -32 67 -34 179 -3 246 71 157 250 225 408 154z m-1455 -356 c30 -6
93 -29 140 -51 69 -33 101 -56 165 -122 137 -137 191 -277 183 -466 -8 -175
-64 -299 -190 -422 -351 -344 -953 -160 -1054 322 -44 210 31 441 192 588 156
144 342 193 564 151z m1466 -612 c193 -99 228 -355 68 -496 -58 -51 -130 -76
-216 -75 -260 4 -391 320 -210 507 36 37 90 71 142 88 47 16 163 3 216 -24z
m3238 -1 c60 -29 103 -73 138 -139 l23 -42 3 -877 c2 -867 2 -877 -18 -932
-26 -67 -92 -139 -158 -169 -72 -33 -179 -31 -254 6 -70 34 -131 101 -155 170
-17 49 -18 109 -18 917 0 862 0 865 21 911 76 164 260 232 418 155z m-3279
-947 c94 -24 184 -122 205 -226 15 -69 6 -122 -31 -200 -82 -171 -312 -217
-468 -94 -26 20 -52 57 -73 99 -58 118 -41 243 47 340 77 86 188 114 320 81z
m36 -977 c151 -74 218 -257 146 -404 -30 -62 -83 -115 -149 -150 -62 -33 -194
-33 -256 0 -66 35 -119 88 -149 150 -37 76 -39 182 -3 255 31 66 100 132 163
156 71 28 183 25 248 -7z"/>
</g>
</svg>
