<?xml version="1.0" standalone="no"?>
<!DOCTYPE svg PUBLIC "-//W3C//DTD SVG 20010904//EN"
 "http://www.w3.org/TR/2001/REC-SVG-20010904/DTD/svg10.dtd">
<svg version="1.0" xmlns="http://www.w3.org/2000/svg"
 width="626.000000pt" height="417.000000pt" viewBox="0 0 626.000000 417.000000"
 preserveAspectRatio="xMidYMid meet">

<g transform="translate(0.000000,417.000000) scale(0.100000,-0.100000)"
fill="#EDDCD1" stroke="none">
<path d="M3975 4019 c-55 -83 -101 -154 -103 -158 -1 -4 34 -31 78 -60 44 -30
80 -57 80 -61 0 -4 -73 -123 -163 -266 -90 -142 -166 -264 -170 -271 -4 -6 14
-34 44 -67 l51 -56 -48 -70 c-26 -39 -51 -73 -55 -76 -18 -11 -33 87 -33 216
l0 135 -14 -65 c-7 -36 -14 -123 -15 -195 -3 -170 20 -232 98 -273 37 -19 133
-19 195 2 l45 15 -67 0 c-39 1 -68 5 -68 11 0 6 51 63 113 128 210 217 227
238 216 249 -7 7 13 31 65 78 44 39 76 75 76 86 0 39 -39 18 -107 -56 l-69
-75 -34 29 -34 28 55 74 c31 41 131 175 224 298 l167 225 -57 29 -57 28 19 22
c11 12 55 65 98 117 43 52 85 103 93 113 13 14 13 17 1 17 -12 0 -239 -261
-239 -275 0 -2 24 -17 54 -32 l55 -28 -221 -295 -220 -295 40 -36 39 -37 -76
-83 c-79 -88 -77 -88 32 6 133 114 79 49 -166 -202 l-100 -103 -29 18 c-17 9
-41 32 -54 51 l-23 34 65 95 65 95 -39 41 c-21 23 -44 48 -51 58 -10 14 13 56
159 287 93 149 170 275 170 279 0 4 -36 31 -80 60 -54 35 -78 57 -74 65 5 6
47 71 94 142 110 167 103 155 88 155 -7 0 -58 -68 -113 -151z"/>
<path d="M2284 3486 c-3 -8 31 -94 75 -191 45 -97 81 -181 81 -187 0 -6 3 -9
6 -5 3 3 -13 65 -36 139 -23 73 -51 161 -61 196 -16 49 -24 62 -40 62 -11 0
-22 -6 -25 -14z"/>
<path d="M2990 3478 c-19 -5 -36 -11 -38 -12 -2 -3 153 -335 161 -342 2 -2
-11 73 -29 168 -19 95 -34 179 -34 186 0 14 -11 14 -60 0z"/>
<path d="M3140 3403 c1 -5 11 -73 24 -153 26 -162 29 -158 42 53 l6 107 -36 0
c-20 0 -36 -3 -36 -7z"/>
<path d="M3911 3266 c-34 -80 -61 -148 -61 -152 0 -4 41 51 90 122 50 70 90
132 90 136 0 8 -41 38 -51 38 -4 0 -35 -65 -68 -144z"/>
<path d="M1742 3297 l-43 -44 96 -74 c54 -41 161 -123 238 -183 191 -146 175
-135 157 -112 -8 11 -64 76 -124 145 -59 69 -144 168 -188 219 -44 50 -83 92
-87 92 -4 0 -26 -20 -49 -43z"/>
<path d="M2069 3312 c-14 -9 -27 -21 -29 -26 -3 -9 272 -348 277 -342 2 2 -11
30 -30 62 -18 33 -66 119 -106 192 -40 72 -75 132 -79 131 -4 0 -19 -8 -33
-17z"/>
<path d="M2736 3228 c-3 -18 -8 -64 -12 -103 -8 -87 -45 -218 -83 -293 -88
-173 -247 -280 -476 -318 l-80 -14 90 5 c50 2 122 12 160 23 276 74 383 240
410 635 7 94 1 131 -9 65z"/>
<path d="M4170 3058 c-47 -55 -87 -105 -88 -110 -3 -7 201 122 217 137 3 4
-38 76 -42 74 -1 0 -40 -46 -87 -101z"/>
<path d="M2832 3101 c39 -76 130 -165 199 -196 56 -25 70 -27 154 -23 82 3
101 8 166 40 41 20 99 60 129 88 l55 51 -68 -45 c-96 -64 -157 -81 -297 -81
-101 0 -121 3 -163 24 -48 24 -134 100 -176 156 -22 30 -22 30 1 -14z"/>
<path d="M4151 2833 c-97 -124 -171 -287 -171 -379 0 -91 69 -184 184 -249 74
-41 253 -108 270 -101 6 2 4 5 -5 5 -35 2 -197 91 -246 135 -134 121 -149 301
-44 520 22 44 49 96 61 114 40 58 12 33 -49 -45z"/>
<path d="M4484 2692 c-94 -75 -186 -150 -205 -165 l-34 -29 45 25 c25 13 131
71 235 127 105 57 191 104 193 105 7 6 -43 75 -53 74 -5 0 -87 -62 -181 -137z"/>
<path d="M3495 2671 c-43 -11 -96 -39 -128 -70 l-29 -26 7 26 6 26 -83 6
c-153 12 -184 10 -205 -17 -10 -13 -46 -123 -78 -244 -33 -122 -63 -218 -66
-214 -4 4 -46 106 -94 227 -48 121 -89 222 -91 224 -2 3 -66 -13 -142 -34 -91
-25 -145 -45 -161 -61 l-24 -22 20 -44 c11 -24 62 -135 113 -248 216 -479 242
-535 250 -543 4 -5 73 -2 151 7 167 19 173 23 198 116 l18 63 21 -34 c29 -47
109 -123 156 -148 66 -34 138 -46 206 -33 87 16 127 39 206 117 55 54 76 83
93 128 62 169 -11 338 -188 431 -69 36 -121 77 -121 96 0 18 69 11 113 -11 22
-12 65 -46 94 -75 29 -30 54 -54 56 -54 8 0 167 192 167 202 0 21 -115 128
-169 157 -95 50 -215 71 -296 52z m-80 -531 c100 -49 146 -86 169 -135 30 -63
-6 -104 -79 -91 -48 9 -116 77 -134 134 -8 23 -16 42 -19 42 -2 0 -40 -25 -84
-56 -58 -41 -79 -52 -75 -38 3 10 20 74 38 142 l32 122 33 -38 c21 -25 64 -54
119 -82z"/>
<path d="M4472 2461 c-152 -68 -189 -88 -142 -77 14 4 89 19 168 35 78 16 145
31 148 34 7 7 -6 77 -15 76 -3 0 -75 -31 -159 -68z"/>
<path d="M2048 2493 c6 -2 18 -2 25 0 6 3 1 5 -13 5 -14 0 -19 -2 -12 -5z"/>
<path d="M1916 2447 c197 -145 324 -401 324 -650 0 -110 -21 -202 -67 -295
-21 -42 -40 -81 -41 -87 -7 -18 63 88 95 145 99 176 105 408 16 585 -56 109
-191 244 -314 314 -77 43 -82 39 -13 -12z"/>
<path d="M4555 2053 c-210 -49 -312 -93 -400 -175 -130 -120 -190 -313 -165
-526 6 -53 15 -100 18 -104 4 -4 8 30 9 76 5 156 76 367 162 481 71 94 208
180 366 231 61 20 67 30 10 17z"/>
<path d="M1990 1874 c-41 -13 -155 -47 -253 -75 -199 -58 -189 -50 -158 -132
l11 -28 237 122 c293 150 306 159 163 113z"/>
<path d="M1975 1674 c-66 -31 -144 -67 -173 -80 l-53 -23 15 -30 c9 -16 21
-33 26 -36 9 -5 310 210 310 221 0 6 1 7 -125 -52z"/>
<path d="M4390 1697 c0 -3 39 -26 86 -52 83 -46 114 -51 114 -21 0 11 -28 24
-87 42 -49 15 -94 29 -100 31 -7 3 -13 3 -13 0z"/>
<path d="M4346 1578 c48 -57 100 -118 116 -137 l30 -34 31 32 c20 20 28 34 21
39 -54 36 -255 186 -260 193 -3 5 -10 9 -15 9 -6 0 29 -46 77 -102z"/>
<path d="M2645 1553 c-135 -21 -322 -93 -502 -191 -115 -64 -131 -82 -25 -28
39 20 90 43 114 52 82 30 213 71 247 78 34 6 33 5 -49 -81 -169 -176 -296
-309 -319 -336 l-24 -26 52 -47 c28 -25 51 -50 51 -56 0 -5 -96 -138 -212
-294 -117 -157 -214 -289 -216 -294 -2 -5 21 -21 51 -36 l54 -27 -96 -116
c-134 -162 -129 -154 -109 -150 9 2 66 64 128 138 l112 135 -57 28 -56 29 23
32 c12 18 95 129 183 247 88 118 176 236 195 263 l34 48 -52 52 -53 53 138
145 c75 79 172 180 214 224 l78 80 75 3 c42 2 76 1 76 -3 0 -4 -59 -92 -131
-197 -145 -210 -139 -187 -66 -264 l38 -41 -54 -84 c-180 -279 -297 -473 -289
-478 5 -3 43 -28 84 -55 l75 -50 -99 -150 c-54 -83 -93 -153 -87 -155 6 -1 11
-1 13 0 20 27 196 302 196 308 0 5 -36 32 -80 61 -48 31 -77 57 -73 64 3 6 78
125 165 263 87 139 161 260 164 268 4 10 -11 34 -41 66 -30 32 -45 56 -41 65
3 9 50 79 104 156 53 77 108 157 122 179 30 48 58 50 135 13 100 -49 144 -100
191 -224 l14 -35 -6 50 c-18 149 -97 264 -206 302 -45 15 -138 24 -183 16z"/>
<path d="M3407 1450 c-132 -34 -240 -135 -328 -309 -38 -74 -37 -91 1 -22 73
132 173 227 288 273 50 20 74 23 192 23 100 0 145 -4 175 -16 82 -33 82 -33
57 -15 -12 10 -55 28 -95 42 -80 28 -226 40 -290 24z"/>
<path d="M3503 1330 c2 -14 19 -105 38 -202 34 -179 46 -205 75 -176 11 11 1
49 -51 208 -36 107 -63 184 -62 170z"/>
<path d="M3685 1260 c5 -8 31 -48 58 -88 47 -71 49 -73 68 -56 18 16 18 18 2
37 -30 33 -137 123 -128 107z"/>
<path d="M3396 1189 c-3 -13 -15 -76 -26 -139 -12 -63 -24 -125 -27 -137 -4
-20 -1 -23 25 -23 l30 0 4 158 c2 86 3 159 2 161 -2 2 -5 -7 -8 -20z"/>
</g>
</svg>
