<svg id="Capa_1" enable-background="new 0 0 512 512" height="512" viewBox="0 0 512 512" width="512" xmlns="http://www.w3.org/2000/svg"><g><path d="m489.958 439.922h-8.913v-143.251c0-6.667-5.424-12.092-12.092-12.092h-107.898v-66.203c0-7.48-6.086-13.566-13.566-13.566h-183.006c-7.465 0-13.538 6.086-13.538 13.566v66.203h-107.927c-6.667 0-12.092 5.425-12.092 12.092v143.251h-8.913c-12.138 0-22.013 9.889-22.013 22.043v18.936c0 12.139 9.875 22.014 22.014 22.014h467.944c12.154 0 22.042-9.875 22.042-22.014v-18.936c0-12.154-9.888-22.043-22.042-22.043zm-128.903-140.342h104.991v33.587h-104.991zm0 48.587h104.991v91.756h-104.991zm-195.11-79.741h73.713c4.142 0 7.5-3.357 7.5-7.5s-3.358-7.5-7.5-7.5h-73.713v-33.616h180.109v33.616h-71.899c-4.142 0-7.5 3.357-7.5 7.5s3.358 7.5 7.5 7.5h71.899v171.496h-180.109zm-120.019 31.154h105.019v33.587h-105.019zm451.074 181.321c0 3.867-3.159 7.014-7.042 7.014h-467.944c-3.867 0-7.014-3.146-7.014-7.014v-18.936c0-3.884 3.146-7.043 7.014-7.043h58.252c4.142 0 7.5-3.357 7.5-7.5s-3.358-7.5-7.5-7.5h-34.34v-91.756h105.019v91.756h-36.04c-4.142 0-7.5 3.357-7.5 7.5s3.358 7.5 7.5 7.5h375.053c3.883 0 7.042 3.159 7.042 7.043z"/><path d="m202.205 111.947-.773 41.113c-.093 4.762 1.378 8.281 4.372 10.46 2.993 2.179 6.794 2.496 11.303.942l38.879-13.44 38.885 13.442c1.873.646 3.624.968 5.247.968 2.285 0 4.316-.64 6.071-1.917 2.999-2.183 4.473-5.7 4.38-10.455l-.799-41.113 24.83-32.833c2.856-3.788 3.725-7.495 2.581-11.019-1.145-3.526-4.034-6.021-8.599-7.419l-39.357-11.972-23.535-33.718c-2.702-3.905-5.955-5.891-9.667-5.9-.009 0-.019-.001-.028-.001-3.71 0-6.974 1.98-9.702 5.887l-23.545 33.732-39.37 11.976c-4.562 1.396-7.451 3.897-8.589 7.434-1.137 3.533-.25 7.245 2.616 11.006zm27.39-49.647c1.608-.489 3.005-1.505 3.967-2.883l22.423-32.125 22.423 32.125c.962 1.378 2.359 2.394 3.967 2.883l37.503 11.408-23.643 31.262c-1.015 1.343-1.549 2.987-1.517 4.67l.762 39.164-37.046-12.807c-.793-.274-1.622-.411-2.45-.411s-1.657.137-2.45.411l-37.021 12.798.736-39.16c.032-1.68-.501-3.321-1.514-4.661l-23.625-31.271z"/><path d="m355.381 94.47c0 4.143 3.358 7.5 7.5 7.5h61.739c4.142 0 7.5-3.357 7.5-7.5s-3.358-7.5-7.5-7.5h-61.739c-4.142 0-7.5 3.358-7.5 7.5z"/><path d="m362.887 60.444c1.195 0 2.407-.287 3.534-.891l50.769-27.186c3.651-1.955 5.026-6.5 3.071-10.151-1.956-3.652-6.501-5.026-10.152-3.071l-50.769 27.186c-3.651 1.955-5.026 6.5-3.071 10.151 1.352 2.525 3.941 3.962 6.618 3.962z"/><path d="m359.34 142.583 50.769 27.185c1.127.604 2.339.891 3.534.891 2.676 0 5.267-1.438 6.618-3.962 1.955-3.651.58-8.196-3.071-10.151l-50.769-27.185c-3.652-1.954-8.197-.581-10.152 3.071-1.955 3.651-.58 8.195 3.071 10.151z"/><path d="m87.38 101.97h61.71c4.142 0 7.5-3.357 7.5-7.5s-3.358-7.5-7.5-7.5h-61.71c-4.142 0-7.5 3.357-7.5 7.5s3.358 7.5 7.5 7.5z"/><path d="m94.782 32.368 50.769 27.186c1.127.604 2.339.891 3.534.891 2.676 0 5.266-1.437 6.618-3.962 1.955-3.651.58-8.196-3.071-10.151l-50.769-27.186c-3.65-1.954-8.197-.582-10.152 3.071-1.956 3.651-.581 8.196 3.071 10.151z"/><path d="m145.55 129.36-50.769 27.185c-3.651 1.955-5.026 6.5-3.071 10.151 1.352 2.525 3.941 3.962 6.618 3.962 1.195 0 2.407-.287 3.534-.891l50.769-27.185c3.651-1.955 5.026-6.5 3.071-10.151-1.955-3.652-6.5-5.026-10.152-3.071z"/><path d="m268.073 295.554c-2.414-1.311-5.351-1.2-7.659.293l-22.422 14.514c-3.477 2.251-4.471 6.895-2.22 10.371 2.251 3.478 6.894 4.471 10.372 2.221l10.846-7.021v73.294c0 4.143 3.358 7.5 7.5 7.5s7.5-3.357 7.5-7.5v-87.083c0-2.748-1.503-5.275-3.917-6.589z"/></g></svg>