<svg id="Capa_1" fill="#EDDCD1"  enable-background="new 0 0 512 512" height="512" viewBox="0 0 512 512" width="512" xmlns="http://www.w3.org/2000/svg"><g><path d="m206.162 433.86c0 4.142 3.358 7.5 7.5 7.5h84.676c4.142 0 7.5-3.358 7.5-7.5s-3.358-7.5-7.5-7.5h-84.676c-4.142 0-7.5 3.358-7.5 7.5z"/><path d="m470.534 92.276c-13.061-28.475-42.956-45.325-73.71-42.754l2.313-17.688c1.312-9.985 2.444-18.608-3.182-25.021-5.297-6.039-14.25-6.813-21.458-6.813h-236.995c-7.208 0-16.16.774-21.458 6.813-5.625 6.413-4.493 15.036-3.182 25.017l2.314 17.692c-30.751-2.57-60.648 14.278-73.709 42.751-8.153 17.758-8.845 37.678-1.949 56.089 6.941 18.53 20.681 33.207 38.686 41.324 11.712 5.289 23.683 8.193 35.259 11.003 19.732 4.789 38.373 9.315 55.14 25.027 11.94 12.239 25.58 22.145 40.34 29.331-5.455 5.127-8.868 12.379-8.868 20.413 0 12.853 8.727 23.711 20.598 27.046-9.158 41.441-39.192 75.006-80.004 88.838-6.41.421-16.499 3.981-21.559 20.964l-14.582 49.117h-10.464c-7.318 0-13.272 5.946-13.272 13.254v24.066c0 7.309 5.954 13.254 13.272 13.254h323.871c7.318 0 13.272-5.946 13.272-13.254v-24.066c0-7.308-5.954-13.254-13.272-13.254h-10.464l-14.584-49.124c-5.058-16.977-15.147-20.536-21.557-20.957-40.81-13.831-70.844-47.394-80.003-88.832 11.869-3.329 20.597-14.192 20.597-27.052 0-8.032-3.409-15.282-8.856-20.409 14.693-7.155 28.276-17.007 40.177-29.175.014-.013.03-.022.044-.035 16.785-15.816 35.471-20.351 55.253-25.152 11.574-2.809 23.542-5.714 35.249-11 18.008-8.119 31.748-22.796 38.689-41.326 6.898-18.412 6.206-38.331-1.946-56.087zm-353.533 93.837c-11.41-2.769-22.188-5.384-32.628-10.099-14.337-6.464-25.279-18.153-30.808-32.913-5.484-14.641-4.939-30.469 1.535-44.571 10.872-23.701 36.404-37.299 62.077-33.708l3.441 26.31c-16.488-6.062-35.215 1.491-42.629 17.64-3.714 8.091-4.012 17.217-.838 25.696 3.196 8.54 9.477 15.285 17.685 18.992.296.134.602.249.913.343l36.415 11.033c3.056 10.054 7.264 19.839 12.566 29.188-9.237-3.422-18.552-5.684-27.729-7.911zm5.887-77.621 4.491 34.343c.223 1.709.483 3.413.772 5.113l-27.547-8.346c-4.343-2.088-7.673-5.762-9.405-10.39-1.763-4.711-1.613-9.747.422-14.181 4.255-9.268 15.752-13.531 25.119-9.298zm293.32 367.933v20.575h-320.416v-20.575zm-113.433-115.643c9.434 11.926 20.876 22.247 33.904 30.514h-63.547c-4.142 0-7.5 3.358-7.5 7.5s3.358 7.5 7.5 7.5h96.769c.008 0 .016.002.025.002.005 0 .009-.001.013-.001 3.657.01 6.541 3.47 8.57 10.281l13.315 44.848h-271.649l13.313-44.841c2.031-6.818 4.915-10.278 8.572-10.288.005 0 .009.001.013.001.008 0 .016-.002.025-.002h98.198c4.142 0 7.5-3.358 7.5-7.5s-3.358-7.5-7.5-7.5h-64.976c13.028-8.267 24.471-18.588 33.904-30.514.298.044.599.074.908.074h91.735c.309 0 .611-.03.908-.074zm-83.285-14.926c7.649-12.891 13.211-27.138 16.301-42.289h40.418c3.09 15.151 8.652 29.397 16.301 42.289zm64.187-57.288h-55.326c-7.32 0-13.276-5.88-13.276-13.108 0-7.223 5.948-13.099 13.262-13.107.005 0 .011.001.016.001.008 0 .016-.002.025-.002h55.3c7.305 0 13.248 5.88 13.248 13.108s-5.944 13.108-13.249 13.108zm-1.267-41.216h-52.794c-45.298-15.296-81.149-58.899-87.363-106.462l-11.738-89.749 107.378-.368c4.142-.014 7.488-3.384 7.474-7.526-.014-4.133-3.369-7.474-7.5-7.474-.009 0-.018 0-.026 0l-109.287.374-.82-6.267c-.621-4.727-1.559-11.871-.415-13.175.061-.07 1.595-1.706 10.182-1.706h236.995c8.587 0 10.121 1.636 10.182 1.706 1.144 1.304.206 8.448-.415 13.179l-.819 6.263-110.659-.375c-.009 0-.017 0-.026 0-4.13 0-7.485 3.341-7.5 7.475-.014 4.142 3.333 7.511 7.475 7.525l108.749.368-11.738 89.75c-6.212 47.56-42.052 91.163-87.335 106.462zm106.702-138.86 6.162-2.768c9.354-4.224 20.85.037 25.104 9.305 2.036 4.434 2.186 9.47.423 14.181-1.732 4.628-5.063 8.302-9.405 10.39l-27.547 8.347c.289-1.699.548-3.403.771-5.112zm69.323 34.609c-5.529 14.76-16.47 26.449-30.812 32.915-10.435 4.712-21.21 7.327-32.618 10.096-9.18 2.228-18.497 4.491-27.734 7.915 5.302-9.35 9.51-19.136 12.567-29.191l36.415-11.033c.311-.094.616-.208.913-.343 8.208-3.708 14.489-10.452 17.685-18.992 3.173-8.479 2.875-17.605-.839-25.696-7.415-16.154-26.15-23.707-42.628-17.641l3.441-26.309c25.674-3.593 51.206 10.009 62.078 33.711 6.471 14.099 7.016 29.927 1.532 44.568z"/><path d="m262.582 92.931c-2.408-1.315-5.34-1.211-7.648.271l-22.605 14.514c-3.485 2.238-4.497 6.877-2.259 10.363s6.877 4.496 10.363 2.259l11.053-7.097v73.353c0 4.142 3.358 7.5 7.5 7.5s7.5-3.358 7.5-7.5v-87.081c0-2.743-1.497-5.267-3.904-6.582z"/></g></svg>